<svg class="icon" viewBox="0 0 1107 1024" xmlns="http://www.w3.org/2000/svg" width="216.211" height="200"><defs><style/></defs><path d="M1019.097 1002.135L767.205 750.243c75.581-79.738 122.3-187.13 122.3-305.395C889.506 199.612 689.96.128 444.72.128 199.479.128 0 199.607 0 444.848s199.479 444.78 444.72 444.78c117.759 0 224.694-46.335 304.31-121.337l251.958 251.958a12.81 12.81 0 0 0 18.109 0 12.718 12.718 0 0 0 0-18.114zM444.72 863.962c-231.479 0-419.12-187.636-419.12-419.114s187.64-419.12 419.12-419.12 419.12 187.641 419.12 419.12-187.642 419.114-419.12 419.114z" fill="#1296db"/><path d="M116.607 483.176l29.517-2.58c1.392 11.831 4.649 21.529 9.758 29.111s13.036 13.711 23.793 18.391c10.752 4.675 22.845 7.01 36.29 7.01 11.935 0 22.471-1.772 31.61-5.32 9.14-3.548 15.939-8.412 20.404-14.602 4.464-6.18 6.697-12.923 6.697-20.24 0-7.418-2.15-13.895-6.452-19.435-4.3-5.535-11.397-10.184-21.288-13.957-6.344-2.468-20.378-6.308-42.097-11.53-21.719-5.212-36.935-10.133-45.644-14.756-11.29-5.908-19.707-13.25-25.242-22.016-5.54-8.765-8.31-18.57-8.31-29.434 0-11.935 3.39-23.091 10.164-33.47s16.665-18.247 29.675-23.628c13.01-5.376 27.474-8.064 43.387-8.064 17.525 0 32.982 2.821 46.371 8.468 13.384 5.648 23.68 13.952 30.884 24.92s11.074 23.382 11.612 37.257l-29.998 2.258c-1.613-14.94-7.07-26.235-16.369-33.868-9.297-7.634-23.04-11.454-41.205-11.454-18.928 0-32.716 3.466-41.374 10.404-8.653 6.932-12.985 15.298-12.985 25.077 0 8.5 3.067 15.483 9.196 20.972 6.021 5.483 21.744 11.1 47.175 16.855 25.426 5.755 42.875 10.777 52.336 15.078 13.763 6.344 23.926 14.382 30.485 24.11 6.558 9.733 9.835 20.946 9.835 33.623 0 12.58-3.604 24.437-10.803 35.568-7.204 11.13-17.556 19.784-31.047 25.963-13.497 6.185-28.688 9.278-45.563 9.278-21.396 0-39.331-3.118-53.79-9.355-14.464-6.236-25.81-15.615-34.033-28.144-8.233-12.513-12.559-26.69-12.989-42.49zm231.612 75.964V322.69h170.965v27.904H379.512v72.417h130.804v27.745H379.512v80.48h145.156v27.91l-176.45-.006zm210.159-115.158c0-39.25 10.541-69.974 31.615-92.174s48.281-33.306 81.612-33.306c21.827 0 41.498 5.218 59.028 15.647 17.526 10.43 30.89 24.975 40.08 43.627 9.195 18.657 13.787 39.813 13.787 63.467 0 23.977-4.838 45.435-14.52 64.358-9.671 18.923-23.377 33.249-41.123 42.982-17.746 9.733-36.884 14.602-57.42 14.602-22.257 0-42.148-5.38-59.674-16.128-17.53-10.752-30.812-25.43-39.838-44.031a133.549 133.549 0 0 1-13.547-59.044zm32.255.487c0 28.487 7.66 50.938 22.979 67.332 15.324 16.394 34.544 24.597 57.666 24.597 23.546 0 42.93-8.28 58.142-24.843 15.216-16.547 22.82-40.048 22.82-70.48 0-19.247-3.252-36.05-9.754-50.402-6.507-14.356-16.025-25.487-28.549-33.387-12.523-7.905-26.583-11.853-42.173-11.853-22.149 0-41.21 7.609-57.18 22.825-15.964 15.211-23.95 40.617-23.95 76.21z" fill="#1296db"/></svg>